<?xml version="1.0" encoding="UTF-8"?>
<svg width="141px" height="23px" viewBox="0 0 141 23" version="1.1" xmlns="http://www.w3.org/2000/svg" xmlns:xlink="http://www.w3.org/1999/xlink">
    <title>BITWITT</title>
    <g id="页面-1" stroke="none" stroke-width="1" fill="none" fill-rule="evenodd" fill-opacity="0.9">
        <g id="BITWITT" transform="translate(0.098958, 0.171875)" fill="#FFFFFF" fill-rule="nonzero">
            <path d="M8,0 C10,0 11.6302083,0.520833333 12.890625,1.5625 C14.1510417,2.60416667 14.78125,3.90625 14.78125,5.46875 C14.78125,6.46875 14.5182292,7.34895833 13.9921875,8.109375 C13.4661458,8.86979167 12.703125,9.47395833 11.703125,9.921875 L11.703125,10.109375 C13.2239583,10.453125 14.4088542,11.1328125 15.2578125,12.1484375 C16.1067708,13.1640625 16.53125,14.3541667 16.53125,15.71875 C16.53125,16.9270833 16.2213542,18.0078125 15.6015625,18.9609375 C14.9817708,19.9140625 14.1223958,20.6302083 13.0234375,21.109375 C11.9244792,21.5885417 10.6302083,21.828125 9.140625,21.828125 L0,21.828125 L0,0 L8,0 Z M6.875,9.0625 C7.98958333,9.0625 8.86979167,8.796875 9.515625,8.265625 C10.1614583,7.734375 10.484375,6.99479167 10.484375,6.046875 C10.484375,5.203125 10.1875,4.53385417 9.59375,4.0390625 C9,3.54427083 8.21875,3.296875 7.25,3.296875 L4.21875,3.296875 L4.21875,9.0625 L6.875,9.0625 Z M7.859375,18.53125 C9.28645833,18.53125 10.3645833,18.2630208 11.09375,17.7265625 C11.8229167,17.1901042 12.1875,16.4010417 12.1875,15.359375 C12.1875,14.4322917 11.8255208,13.7005208 11.1015625,13.1640625 C10.3776042,12.6276042 9.40625,12.359375 8.1875,12.359375 L4.21875,12.359375 L4.21875,18.53125 L7.859375,18.53125 Z" id="形状"></path>
            <polygon id="路径" points="29.7395833 0 29.7395833 21.828125 25.5208333 21.828125 25.5208333 0"></polygon>
            <polygon id="路径" points="58.0885417 0 58.0885417 3.296875 50.3385417 3.296875 50.3385417 21.828125 46.1197917 21.828125 46.1197917 3.296875 38.3697917 3.296875 38.3697917 0"></polygon>
            <polygon id="路径" points="68.703125 0 74.140625 13.46875 79.859375 0 83.421875 0 89.171875 13.515625 94.59375 0 98.90625 0 89.921875 22.109375 88.5 22.109375 81.625 5.921875 74.71875 22.109375 73.34375 22.109375 64.34375 0"></polygon>
            <polygon id="路径" points="111.083333 0 111.083333 21.828125 106.864583 21.828125 106.864583 0"></polygon>
            <polygon id="路径" points="139.432292 0 139.432292 3.296875 131.682292 3.296875 131.682292 21.828125 127.463542 21.828125 127.463542 3.296875 119.713542 3.296875 119.713542 0"></polygon>
        </g>
    </g>
</svg>